<svg xmlns:xlink="http://www.w3.org/1999/xlink" xmlns="http://www.w3.org/2000/svg" width="403" height="167" viewBox="0 0 403 167" fill="none">
<mask id="mask0_37_504" style="mask-type:luminance" maskUnits="userSpaceOnUse" x="385" y="76" width="13" height="19">
<path d="M385.008 76.8408H397.334V94.5361H385.008V76.8408Z" fill="white"/>
</mask>
<g mask="url(#mask0_37_504)">
<path d="M393.121 86.3556H391.22V82.8117H393.121C394.566 82.8117 395.312 83.467 395.312 84.5836C395.312 85.7002 394.566 86.3556 393.121 86.3556ZM396.973 84.5836C396.973 82.5932 395.529 81.4038 393.218 81.4038H389.558V90.3364H391.22V87.7149H393.218C393.314 87.7149 393.434 87.7149 393.555 87.7149L395.36 90.3364H397.118L395.096 87.3993C396.299 86.9139 396.973 85.9187 396.973 84.5836Z" fill="black"/>
</g>
<mask id="mask1_37_504" style="mask-type:luminance" maskUnits="userSpaceOnUse" x="383" y="76" width="20" height="20">
<path d="M383.733 76.8408H402.222V95.4828H383.733V76.8408Z" fill="white"/>
</mask>
<g mask="url(#mask1_37_504)">
<path d="M392.978 93.8565C388.765 93.8565 385.322 90.4097 385.322 86.1618C385.322 81.914 388.765 78.4429 392.978 78.4429C397.191 78.4429 400.609 81.914 400.609 86.1618C400.609 90.4097 397.191 93.8565 392.978 93.8565ZM392.978 76.8408C387.874 76.8408 383.733 81.0158 383.733 86.1618C383.733 91.2835 387.874 95.4828 392.978 95.4828C398.057 95.4828 402.222 91.2835 402.222 86.1618C402.222 81.0158 398.057 76.8408 392.978 76.8408Z" fill="black"/>
</g>
<path d="M82.2723 148.252H80.1538L80.0575 141.941L77.7464 147.281H76.2057L73.8946 141.941V148.252H71.6797V138.542H74.376L76.976 144.271L79.576 138.542H82.2723V148.252Z" fill="black"/>
<path d="M91.7103 140.484H86.6066V142.426H91.2289V144.368H86.6066V146.31H91.9029V148.252H84.1992V138.542H91.7103V140.484Z" fill="black"/>
<path d="M99.9215 146.504H95.6845L94.9141 148.252H92.4104L96.5511 138.542H99.1511L103.196 148.252H100.596L99.9215 146.504ZM99.1511 144.562L97.803 140.97L96.3585 144.562H99.1511Z" fill="black"/>
<path d="M106.471 146.213H110.612V148.252H104.064V138.542H106.471V146.213Z" fill="black"/>
<path d="M114.956 138.542H119.193C120.397 138.542 121.336 138.834 121.986 139.416C122.684 139.999 123.045 140.848 123.045 141.941C123.045 143.057 122.684 143.931 121.986 144.562C121.336 145.217 120.397 145.533 119.193 145.533H117.363V148.252H114.956V138.542ZM117.363 140.484V143.591H119C119.578 143.591 119.987 143.47 120.252 143.203C120.565 142.96 120.734 142.572 120.734 142.038C120.734 141.528 120.565 141.139 120.252 140.872C119.987 140.63 119.578 140.484 119 140.484H117.363Z" fill="black"/>
<path d="M130.087 148.252L128.643 145.533H126.717V148.252H124.309V138.542H128.643C129.919 138.542 130.882 138.834 131.532 139.416C132.23 139.999 132.591 140.848 132.591 141.941C132.591 143.445 132.013 144.465 130.858 145.048L132.88 148.252H130.087ZM126.717 143.591H128.643C129.148 143.591 129.533 143.47 129.798 143.203C130.111 142.96 130.28 142.572 130.28 142.038C130.28 141.528 130.111 141.139 129.798 140.872C129.533 140.63 129.148 140.484 128.643 140.484H126.717V143.591Z" fill="black"/>
<path d="M141.783 140.484H136.679V142.426H141.301V144.368H136.679V146.31H141.975V148.252H134.272V138.542H141.783V140.484Z" fill="black"/>
<path d="M143.542 138.542H147.779C148.982 138.542 149.921 138.834 150.571 139.416C151.269 139.999 151.631 140.848 151.631 141.941C151.631 143.057 151.269 143.931 150.571 144.562C149.921 145.217 148.982 145.533 147.779 145.533H145.949V148.252H143.542V138.542ZM145.949 140.484V143.591H147.586C148.164 143.591 148.573 143.47 148.838 143.203C149.151 142.96 149.319 142.572 149.319 142.038C149.319 141.528 149.151 141.139 148.838 140.872C148.573 140.63 148.164 140.484 147.586 140.484H145.949Z" fill="black"/>
<path d="M158.109 149.798H156.28V137.078H158.109V149.798Z" fill="black"/>
<path d="M163.388 138.542H167.914C168.998 138.542 169.864 138.785 170.514 139.222C171.14 139.61 171.477 140.193 171.477 140.97C171.477 141.504 171.309 141.941 170.996 142.329C170.731 142.717 170.346 142.984 169.84 143.106C170.418 143.251 170.9 143.543 171.285 143.979C171.67 144.441 171.863 144.95 171.863 145.533C171.863 146.383 171.501 147.062 170.803 147.572C170.153 148.033 169.263 148.252 168.107 148.252H163.388V138.542ZM165.796 140.387V142.426H167.818C168.131 142.426 168.396 142.329 168.588 142.135C168.829 141.941 168.974 141.698 168.974 141.358C168.974 141.115 168.829 140.872 168.588 140.678C168.396 140.484 168.131 140.387 167.818 140.387H165.796ZM165.796 144.174V146.31H167.818C168.251 146.31 168.613 146.213 168.877 146.018C169.118 145.824 169.263 145.582 169.263 145.242C169.263 144.926 169.118 144.659 168.877 144.465C168.613 144.271 168.251 144.174 167.818 144.174H165.796Z" fill="black"/>
<path d="M179.002 148.252L177.558 145.533H175.632V148.252H173.224V138.542H177.558C178.834 138.542 179.797 138.834 180.447 139.416C181.145 139.999 181.506 140.848 181.506 141.941C181.506 143.445 180.928 144.465 179.773 145.048L181.795 148.252H179.002ZM175.632 143.591H177.558C178.063 143.591 178.449 143.47 178.713 143.203C179.026 142.96 179.195 142.572 179.195 142.038C179.195 141.528 179.026 141.139 178.713 140.872C178.449 140.63 178.063 140.484 177.558 140.484H175.632V143.591Z" fill="black"/>
<path d="M190.697 140.484H185.593V142.426H190.215V144.368H185.593V146.31H190.889V148.252H183.186V138.542H190.697V140.484Z" fill="black"/>
<path d="M198.909 146.504H194.672L193.902 148.252H191.398L195.539 138.542H198.139L202.183 148.252H199.583L198.909 146.504ZM198.139 144.562L196.791 140.97L195.346 144.562H198.139Z" fill="black"/>
<path d="M209.308 148.252L206.805 144.465L205.457 145.824V148.252H203.049V138.542H205.457V142.717L209.212 138.542H212.005L208.442 142.523L212.294 148.252H209.308Z" fill="black"/>
<path d="M220.449 140.484H215.73V142.717H220.064V144.659H215.73V148.252H213.323V138.542H220.449V140.484Z" fill="black"/>
<path d="M228.085 146.504H223.848L223.078 148.252H220.574L224.715 138.542H227.315L231.359 148.252H228.759L228.085 146.504ZM227.315 144.562L225.967 140.97L224.522 144.562H227.315Z" fill="black"/>
<path d="M235.884 138.436C237.353 138.436 238.629 138.8 239.736 139.504L238.773 141.446C238.316 141.13 237.762 140.863 237.136 140.669C236.558 140.475 236.077 140.378 235.692 140.378C234.969 140.378 234.632 140.645 234.632 141.155C234.632 141.422 234.777 141.64 235.114 141.834C235.499 142.028 235.932 142.198 236.462 142.32C236.967 142.465 237.449 142.611 237.906 142.805C238.412 142.999 238.821 143.339 239.158 143.776C239.543 144.165 239.736 144.699 239.736 145.33C239.736 146.301 239.375 147.053 238.677 147.563C237.955 148.097 237.04 148.34 235.884 148.34C235.114 148.34 234.295 148.218 233.477 147.951C232.706 147.636 232.032 147.247 231.455 146.786L232.417 144.844C232.923 145.305 233.501 145.67 234.151 145.912C234.777 146.179 235.355 146.301 235.884 146.301C236.317 146.301 236.655 146.252 236.847 146.106C237.04 145.985 237.136 145.791 237.136 145.524C237.136 145.208 236.992 144.99 236.751 144.844C236.558 144.65 236.269 144.529 235.884 144.456C235.499 144.334 235.066 144.213 234.632 144.067C234.175 143.946 233.766 143.776 233.38 143.582C232.995 143.388 232.658 143.097 232.417 142.708C232.225 142.32 232.129 141.883 232.129 141.349C232.129 140.451 232.442 139.747 233.092 139.213C233.79 138.703 234.729 138.436 235.884 138.436Z" fill="black"/>
<path d="M248.499 140.484H245.514V148.252H243.107V140.484H240.218V138.542H248.499V140.484Z" fill="black"/>
<path d="M254.701 149.798H252.871V137.078H254.701V149.798Z" fill="black"/>
<path d="M263.645 138.436C265.113 138.436 266.389 138.8 267.497 139.504L266.534 141.446C266.076 141.13 265.523 140.863 264.897 140.669C264.319 140.475 263.838 140.378 263.452 140.378C262.73 140.378 262.393 140.645 262.393 141.155C262.393 141.422 262.538 141.64 262.875 141.834C263.26 142.028 263.693 142.198 264.223 142.32C264.728 142.465 265.21 142.611 265.667 142.805C266.173 142.999 266.582 143.339 266.919 143.776C267.304 144.165 267.497 144.699 267.497 145.33C267.497 146.301 267.136 147.053 266.438 147.563C265.715 148.097 264.801 148.34 263.645 148.34C262.875 148.34 262.056 148.218 261.238 147.951C260.467 147.636 259.793 147.247 259.215 146.786L260.178 144.844C260.684 145.305 261.262 145.67 261.912 145.912C262.538 146.179 263.115 146.301 263.645 146.301C264.078 146.301 264.415 146.252 264.608 146.106C264.801 145.985 264.897 145.791 264.897 145.524C264.897 145.208 264.752 144.99 264.512 144.844C264.319 144.65 264.03 144.529 263.645 144.456C263.26 144.334 262.826 144.213 262.393 144.067C261.936 143.946 261.526 143.776 261.141 143.582C260.756 143.388 260.419 143.097 260.178 142.708C259.986 142.32 259.889 141.883 259.889 141.349C259.889 140.451 260.202 139.747 260.852 139.213C261.551 138.703 262.489 138.436 263.645 138.436Z" fill="black"/>
<path d="M275.292 146.504H271.055L270.285 148.252H267.781L271.922 138.542H274.522L278.566 148.252H275.966L275.292 146.504ZM274.522 144.562L273.174 140.97L271.729 144.562H274.522Z" fill="black"/>
<path d="M281.842 146.213H285.983V148.252H279.434V138.542H281.842V146.213Z" fill="black"/>
<path d="M293.589 146.504H289.352L288.582 148.252H286.078L290.219 138.542H292.819L296.863 148.252H294.263L293.589 146.504ZM292.819 144.562L291.471 140.97L290.026 144.562H292.819Z" fill="black"/>
<path d="M297.733 138.542H301.874C303.415 138.542 304.619 139.003 305.533 139.902C306.496 140.824 306.978 141.989 306.978 143.397C306.978 144.829 306.496 145.994 305.533 146.892C304.57 147.815 303.319 148.252 301.778 148.252H297.733V138.542ZM300.141 140.484V146.31H301.97C302.669 146.31 303.246 146.067 303.704 145.533C304.209 144.95 304.474 144.246 304.474 143.397C304.474 142.572 304.209 141.892 303.704 141.358C303.246 140.775 302.596 140.484 301.778 140.484H300.141Z" fill="black"/>
<path d="M313.496 149.798H311.666V137.078H313.496V149.798Z" fill="black"/>
<path d="M152.636 157.021H157.162C158.245 157.021 159.112 157.264 159.762 157.701C160.388 158.089 160.725 158.672 160.725 159.448C160.725 159.982 160.557 160.419 160.244 160.808C159.979 161.196 159.594 161.463 159.088 161.584C159.666 161.73 160.147 162.021 160.532 162.458C160.918 162.919 161.11 163.429 161.11 164.012C161.11 164.861 160.749 165.541 160.051 166.051C159.401 166.512 158.51 166.73 157.355 166.73H152.636V157.021ZM155.044 158.866V160.905H157.066C157.379 160.905 157.644 160.808 157.836 160.613C158.077 160.419 158.221 160.177 158.221 159.837C158.221 159.594 158.077 159.351 157.836 159.157C157.644 158.963 157.379 158.866 157.066 158.866H155.044ZM155.044 162.652V164.788H157.066C157.499 164.788 157.86 164.691 158.125 164.497C158.366 164.303 158.51 164.06 158.51 163.72C158.51 163.405 158.366 163.138 158.125 162.944C157.86 162.75 157.499 162.652 157.066 162.652H155.044Z" fill="black"/>
<path d="M169.984 158.963H164.88V160.905H169.502V162.847H164.88V164.788H170.176V166.73H162.473V157.021H169.984V158.963Z" fill="black"/>
<path d="M177.043 166.73H174.539L170.783 157.021H173.383L175.887 164.206L178.294 157.021H180.798L177.043 166.73Z" fill="black"/>
<path d="M189.286 158.963H184.182V160.905H188.804V162.847H184.182V164.788H189.478V166.73H181.774V157.021H189.286V158.963Z" fill="black"/>
<path d="M196.824 166.73L195.38 164.012H193.454V166.73H191.046V157.021H195.38C196.655 157.021 197.618 157.312 198.268 157.895C198.967 158.477 199.328 159.327 199.328 160.419C199.328 161.924 198.75 162.944 197.594 163.526L199.617 166.73H196.824ZM193.454 162.07H195.38C195.885 162.07 196.27 161.948 196.535 161.681C196.848 161.439 197.017 161.05 197.017 160.516C197.017 160.007 196.848 159.618 196.535 159.351C196.27 159.109 195.885 158.963 195.38 158.963H193.454V162.07Z" fill="black"/>
<path d="M207.457 164.983H203.22L202.45 166.73H199.946L204.087 157.021H206.687L210.731 166.73H208.131L207.457 164.983ZM206.687 163.041L205.339 159.448L203.894 163.041H206.687Z" fill="black"/>
<path d="M218.048 161.785H220.166V165.572C219.588 165.96 218.914 166.3 218.144 166.542C217.422 166.737 216.748 166.834 216.122 166.834C214.629 166.834 213.377 166.397 212.366 165.474C211.403 164.503 210.922 163.314 210.922 161.882C210.922 160.474 211.427 159.309 212.462 158.387C213.473 157.416 214.773 156.93 216.314 156.93C217.012 156.93 217.711 157.076 218.433 157.319C219.131 157.586 219.733 157.95 220.262 158.387L218.818 160.037C218.481 159.722 218.072 159.455 217.566 159.26C217.109 159.066 216.651 158.969 216.218 158.969C215.448 158.969 214.773 159.26 214.196 159.843C213.666 160.377 213.425 161.057 213.425 161.882C213.425 162.732 213.666 163.435 214.196 164.018C214.773 164.552 215.472 164.795 216.314 164.795C216.82 164.795 217.398 164.649 218.048 164.309V161.785Z" fill="black"/>
<path d="M229.328 158.963H224.225V160.905H228.847V162.847H224.225V164.788H229.521V166.73H221.817V157.021H229.328V158.963Z" fill="black"/>
<path d="M53.1556 100.026H50.7482V121.872H53.1556V129.833H34.9556V121.872H37.2667V104.88L29.0815 129.833H21.9556L13.4815 105.075V121.872H15.7926V129.833H0V121.872H2.40741V100.026H0V92.064H22.0519L27.0593 107.211L31.8741 92.064H53.1556V100.026Z" fill="black"/>
<path d="M76.136 92.064H90.8693V100.026H88.9434L79.699 116.823V121.872H82.1064V129.833H63.8101V121.872H66.2175V116.823L56.5879 100.026H54.6619V92.064H73.3434V100.026H71.6101L74.499 107.502H74.9805L77.773 100.026H76.136V92.064Z" fill="black"/>
<path d="M92.4167 129.833V121.872H94.8241V100.026H92.4167V92.064H121.209V104.589H112.735V100.026H108.306V108.084H115.624V113.619H108.306V121.872H114.661V129.833H92.4167Z" fill="black"/>
<path d="M122.855 129.833V121.872H125.263V100.026H122.855V92.064H141.151V100.026H138.744V121.872H141.151V129.833H122.855Z" fill="black"/>
<path d="M178.999 103.812H170.717V100.026H167.636V121.872H171.006V129.833H150.784V121.872H154.154V100.026H151.073V103.812H142.791V92.064H178.999V103.812Z" fill="black"/>
<path d="M248.249 100.026H245.841V121.872H248.249V129.833H230.049V121.872H232.36V104.88L224.175 129.833H217.049L208.575 105.075V121.872H210.886V129.833H195.093V121.872H197.501V100.026H195.093V92.064H217.145L222.153 107.211L226.967 92.064H248.249V100.026Z" fill="black"/>
<path d="M250.136 129.833V121.872H252.543V100.026H250.136V92.064H282.684V106.725H271.899V100.026H266.025V107.696H270.262V113.23H266.025V121.872H271.899V114.201H282.684V129.833H250.136Z" fill="black"/>
<path d="M319.815 121.872H321.741V129.833H302.867V121.872H305.756L304.986 117.988H298.438L297.667 121.872H300.556V129.833H284.09V121.872H286.015L294.201 92.064H311.727L319.815 121.872ZM299.497 112.842H303.927L302.001 103.133H301.519L299.497 112.842Z" fill="black"/>
<path d="M323.294 129.833V121.872H325.701V100.026H323.294V92.064H343.613V100.026H339.183V121.872H343.516V117.405H353.146V129.833H323.294Z" fill="black"/>
<path d="M369.666 130.523C366.585 130.523 363.648 130.256 360.903 129.747C358.207 129.164 356.112 128.557 354.644 127.902V118.289H365.236C365.236 119.26 365.453 119.989 365.911 120.426C366.344 120.887 367.162 121.105 368.318 121.105C369.329 121.105 370.051 120.984 370.436 120.717C370.87 120.401 371.111 119.916 371.111 119.26C371.111 118.751 370.87 118.338 370.436 117.998C370.051 117.61 369.329 117.221 368.318 116.833L364.177 115.377C360.638 114.017 358.062 112.44 356.473 110.619C354.933 108.75 354.162 106.226 354.162 103.046C354.162 99.2348 355.414 96.3463 357.918 94.4044C360.422 92.414 364.562 91.3945 370.34 91.3945C373.157 91.3945 375.781 91.6858 378.236 92.2684C380.668 92.8024 382.666 93.5306 384.207 94.5015V103.143H374.577C374.577 101.541 373.566 100.716 371.592 100.716C370.629 100.716 369.907 100.861 369.473 101.104C369.088 101.371 368.896 101.784 368.896 102.366C368.896 102.949 369.112 103.41 369.57 103.725C370.075 104.065 370.846 104.381 371.881 104.696L376.118 106.153C379.512 107.318 381.992 108.847 383.533 110.716C385.073 112.609 385.844 115.037 385.844 117.998C385.844 122.149 384.448 125.28 381.703 127.416C379.007 129.504 374.986 130.523 369.666 130.523Z" fill="black"/>
<mask id="mask2_37_504" style="mask-type:luminance" maskUnits="userSpaceOnUse" x="187" y="38" width="44" height="42">
<path d="M187.794 38.6086H230.934V79.4122H187.794V38.6086Z" fill="white"/>
</mask>
<g mask="url(#mask2_37_504)">
<path d="M228.671 41.035C228.671 41.035 192.873 38.6077 192.632 76.9839C231.127 76.7412 228.671 41.035 228.671 41.035Z" fill="black"/>
<path d="M190.539 79.094L192.633 79.0697C205.055 78.9969 214.709 75.3316 221.33 68.2195C231.73 57.0538 230.791 41.5431 230.743 40.9119L230.622 39.0914L228.817 38.9701C228.817 38.9701 228.287 38.9458 227.396 38.9458C221.281 38.9458 190.78 40.7663 190.539 76.9822V79.094ZM226.602 43.0966C226.481 47.3201 225.422 57.7334 218.272 65.4038C212.831 71.2537 204.935 74.4092 194.752 74.8704C196.004 46.3977 218.393 43.2665 226.602 43.0966Z" fill="black"/>
</g>
<path d="M186.036 3.27466C186.036 3.27466 158.977 26.7956 186.036 54.1032C213.072 26.7956 186.036 3.27466 186.036 3.27466Z" fill="black"/>
<mask id="mask3_37_504" style="mask-type:luminance" maskUnits="userSpaceOnUse" x="169" y="0" width="32" height="58">
<path d="M169.305 0.916748H200.12V57.2553H169.305V0.916748Z" fill="white"/>
</mask>
<g mask="url(#mask3_37_504)">
<path d="M186.037 57.0663L187.505 55.5614C196.244 46.7501 200.481 37.3563 200.096 27.6469C199.542 12.4275 187.891 2.13559 187.385 1.69867L186.037 0.509277L184.665 1.69867C184.159 2.13559 172.531 12.4275 171.954 27.6469C171.592 37.3563 175.83 46.7501 184.544 55.5614L186.037 57.0663ZM186.037 6.18925C188.95 9.27198 195.57 17.355 195.955 27.8411C196.244 35.8028 192.898 43.6189 186.037 51.0951C179.152 43.6189 175.83 35.8028 176.118 27.8411C176.48 17.355 183.1 9.27198 186.037 6.18925Z" fill="black"/>
</g>
<mask id="mask4_37_504" style="mask-type:luminance" maskUnits="userSpaceOnUse" x="139" y="38" width="43" height="42">
<path d="M139.234 38.6086H181.629V79.4122H139.234V38.6086Z" fill="white"/>
</mask>
<g mask="url(#mask4_37_504)">
<path d="M142.387 41.035C142.387 41.035 178.161 38.6077 178.426 76.9839C139.932 76.7412 142.387 41.035 142.387 41.035Z" fill="black"/>
<path d="M180.521 79.094L180.497 76.9822C180.28 40.7663 149.754 38.9458 143.64 38.9458C142.749 38.9458 142.243 38.9701 142.243 38.9701L140.438 39.0914L140.317 40.9119C140.269 41.5431 139.33 57.0538 149.706 68.2195C156.327 75.3316 165.98 78.9969 178.403 79.0697L180.521 79.094ZM144.434 43.0966C152.643 43.2665 175.032 46.3977 176.284 74.8704C166.101 74.4092 158.204 71.2294 152.764 65.3795C145.59 57.6849 144.554 47.3201 144.434 43.0966Z" fill="black"/>
</g>
<mask id="mask5_37_504" style="mask-type:luminance" maskUnits="userSpaceOnUse" x="144" y="44" width="38" height="36">
<path d="M144.652 44.8289H181.63V79.9039H144.652V44.8289Z" fill="white"/>
</mask>
<g mask="url(#mask5_37_504)">
<path d="M147.059 46.0374C147.059 46.0374 179.27 43.8771 179.487 77.7627C144.844 77.5443 147.059 46.0374 147.059 46.0374Z" fill="black"/>
</g>
<mask id="mask6_37_504" style="mask-type:luminance" maskUnits="userSpaceOnUse" x="144" y="38" width="38" height="42">
<path d="M144.653 38.6086H181.63V79.8977H144.653V38.6086Z" fill="white"/>
</mask>
<g mask="url(#mask6_37_504)">
<path d="M181.39 79.6081L179.488 79.5838C168.317 79.511 159.627 76.3069 153.656 70.0201C144.316 60.1651 145.158 46.4749 145.206 45.9166L145.303 44.3146L146.94 44.1932C146.94 44.1932 147.397 44.1689 148.216 44.1689C153.704 44.1689 181.173 45.7953 181.366 77.7391L181.39 79.6081ZM148.914 47.8342C149.034 51.5723 149.973 60.772 156.425 67.5442C161.312 72.6902 168.438 75.4816 177.586 75.8943C176.454 50.7713 156.304 48.0041 148.914 47.8342Z" fill="black"/>
</g>
<mask id="mask7_37_504" style="mask-type:luminance" maskUnits="userSpaceOnUse" x="169" y="9" width="32" height="55">
<path d="M169.305 9.99146H200.119V63.4658H169.305V9.99146Z" fill="white"/>
</mask>
<g mask="url(#mask7_37_504)">
<path d="M185.434 12.6816C185.434 12.6816 209.773 33.4354 185.434 57.5632C161.095 33.4354 185.434 12.6816 185.434 12.6816Z" fill="black"/>
<path d="M185.433 60.1571L184.109 58.8463C176.261 51.0546 172.433 42.7531 172.77 34.1846C173.276 20.7614 183.748 11.6831 184.206 11.2947L185.433 10.251L186.661 11.2947C187.119 11.6831 197.591 20.7614 198.096 34.1846C198.433 42.7531 194.63 51.0546 186.758 58.8463L185.433 60.1571ZM185.433 15.2513C182.809 17.9699 176.839 25.1063 176.502 34.3545C176.237 41.3938 179.246 48.2874 185.433 54.8898C191.62 48.2874 194.63 41.3938 194.365 34.3545C194.028 25.1063 188.058 17.9699 185.433 15.2513Z" fill="black"/>
</g>
<mask id="mask8_37_504" style="mask-type:luminance" maskUnits="userSpaceOnUse" x="187" y="44" width="38" height="36">
<path d="M187.794 44.8289H224.771V79.9039H187.794V44.8289Z" fill="white"/>
</mask>
<g mask="url(#mask8_37_504)">
<path d="M224.724 46.0374C224.724 46.0374 192.513 43.8771 192.272 77.7627C226.915 77.5443 224.724 46.0374 224.724 46.0374Z" fill="black"/>
</g>
<mask id="mask9_37_504" style="mask-type:luminance" maskUnits="userSpaceOnUse" x="187" y="38" width="41" height="42">
<path d="M187.794 38.6086H227.54V79.8977H187.794V38.6086Z" fill="white"/>
</mask>
<g mask="url(#mask9_37_504)">
<path d="M190.394 79.6081L190.418 77.7391C190.61 45.7953 218.079 44.1689 223.568 44.1689C224.386 44.1689 224.844 44.1932 224.844 44.1932L226.457 44.3146L226.577 45.9166C226.625 46.4749 227.468 60.1651 218.127 70.0201C212.157 76.3069 203.466 79.511 192.296 79.5838L190.394 79.6081ZM222.87 47.8342C215.479 48.0041 195.329 50.747 194.197 75.87C203.37 75.4816 210.496 72.6902 215.383 67.52C221.834 60.7234 222.773 51.5723 222.87 47.8342Z" fill="black"/>
</g>
<path d="M93.6879 129.044V121.082H96.0953V99.2361H93.6879V91.2744H122.48V103.799H114.006V99.2361H109.577V107.295H116.895V112.829H109.577V121.082H115.932V129.044H93.6879Z" fill="black"/>
<path d="M124.124 129.044V121.082H126.531V99.2361H124.124V91.2744H142.42V99.2361H140.013V121.082H142.42V129.044H124.124Z" fill="black"/>
<path d="M180.27 103.023H171.989V99.2361H168.907V121.082H172.278V129.044H152.056V121.082H155.426V99.2361H152.344V103.023H144.063V91.2744H180.27V103.023Z" fill="black"/>
</svg>